<svg width="32" height="32" fill="none" xmlns="http://www.w3.org/2000/svg"><g clip-path="url(#a)" fill="#DC7000"><path d="m31.352 27.45-.661-2.47a.602.602 0 1 0-1.164.312l.29 1.081-4.229-2.411V13.938a.603.603 0 0 0-.302-.522l-8.735-5.022V3.62l.779.78a.603.603 0 0 0 .852-.853L16.374 1.74a.605.605 0 0 0-.852 0l-1.808 1.808a.603.603 0 0 0 .853.852l.779-.779v4.774l-8.677 5.022a.603.603 0 0 0-.301.521v9.926l-4.287 2.437.29-1.083a.602.602 0 0 0-1.164-.312l-.662 2.47a.608.608 0 0 0 .444.742l2.452.657a.603.603 0 0 0 .311-1.164l-1.045-.28 4.255-2.418 8.718 5.134c.187.11.419.111.607.003l2.21-1.274a.603.603 0 1 0-.602-1.044L15.99 28.83l-7.818-4.604 7.74-4.398 7.888 4.5-1.207.696a.603.603 0 1 0 .602 1.044l1.818-1.048 4.18 2.385-1.047.28a.602.602 0 1 0 .312 1.164l2.415-.647a.607.607 0 0 0 .48-.752Zm-6.969-4.176-7.832-4.468V9.784l7.832 4.503v8.987Zm-16.81-8.988 7.773-4.499v8.976L7.573 23.18v-8.894Z"/><path d="M20.527 27.472a.603.603 0 1 0 0-1.205.603.603 0 0 0 0 1.205Z"/></g><defs><clipPath id="a"><path fill="#fff" transform="translate(.525 .424)" d="M0 0h30.848v30.848H0z"/></clipPath></defs></svg>