<svg width="21" height="21" fill="none" xmlns="http://www.w3.org/2000/svg"><g clip-path="url(#a)"><path d="M1.262 11.974c.086.014.173.02.26.02h14.815l-.323.15c-.316.149-.603.352-.849.6L11.011 16.9a1.555 1.555 0 0 0-.218 1.99 1.503 1.503 0 0 0 2.254.196l7.512-7.513a1.502 1.502 0 0 0 .002-2.124l-.002-.002-7.512-7.512a1.503 1.503 0 0 0-2.254.15 1.555 1.555 0 0 0 .218 1.99l4.147 4.163c.22.22.474.406.751.548l.45.203H1.606A1.555 1.555 0 0 0 .02 10.25c-.133.82.423 1.591 1.242 1.724Z" fill="#DC7000"/></g><defs><clipPath id="a"><path fill="#fff" transform="rotate(-180 10.5 10.5)" d="M0 0h21v21H0z"/></clipPath></defs></svg>