<svg width="69" height="19" fill="none" xmlns="http://www.w3.org/2000/svg"><path d="M4.825 14.7h5.6V18H.55V.45h4.275V14.7Zm15.94 3.475c-1.65 0-3.168-.383-4.55-1.15a8.742 8.742 0 0 1-3.276-3.2c-.8-1.383-1.2-2.933-1.2-4.65 0-1.717.4-3.258 1.2-4.625a8.742 8.742 0 0 1 3.275-3.2C17.597.583 19.114.2 20.764.2s3.158.383 4.525 1.15a8.332 8.332 0 0 1 3.25 3.2c.8 1.367 1.2 2.908 1.2 4.625s-.4 3.267-1.2 4.65a8.559 8.559 0 0 1-3.25 3.2c-1.367.767-2.875 1.15-4.525 1.15Zm0-3.9c1.4 0 2.516-.467 3.35-1.4.85-.933 1.274-2.167 1.274-3.7 0-1.55-.425-2.783-1.275-3.7-.833-.933-1.95-1.4-3.35-1.4-1.417 0-2.55.458-3.4 1.375-.833.917-1.25 2.158-1.25 3.725 0 1.55.417 2.792 1.25 3.725.85.917 1.983 1.375 3.4 1.375ZM43.766 6a3.11 3.11 0 0 0-1.375-1.325c-.583-.317-1.275-.475-2.075-.475-1.383 0-2.491.458-3.325 1.375-.833.9-1.25 2.108-1.25 3.625 0 1.617.434 2.883 1.3 3.8.884.9 2.092 1.35 3.625 1.35 1.05 0 1.934-.267 2.65-.8.734-.533 1.267-1.3 1.6-2.3h-5.425V8.1h9.3v3.975c-.316 1.067-.858 2.058-1.625 2.975-.75.917-1.708 1.658-2.875 2.225-1.166.567-2.483.85-3.95.85-1.733 0-3.283-.375-4.65-1.125a8.3 8.3 0 0 1-3.175-3.175c-.75-1.35-1.125-2.892-1.125-4.625s.375-3.275 1.125-4.625A8.079 8.079 0 0 1 35.692 1.4C37.042.633 38.584.25 40.317.25c2.1 0 3.867.508 5.3 1.525C47.067 2.792 48.026 4.2 48.492 6h-4.725ZM59.46 18.175c-1.65 0-3.166-.383-4.55-1.15a8.742 8.742 0 0 1-3.275-3.2c-.8-1.383-1.2-2.933-1.2-4.65 0-1.717.4-3.258 1.2-4.625a8.742 8.742 0 0 1 3.275-3.2C56.294.583 57.81.2 59.46.2s3.159.383 4.525 1.15a8.332 8.332 0 0 1 3.25 3.2c.8 1.367 1.2 2.908 1.2 4.625s-.4 3.267-1.2 4.65a8.559 8.559 0 0 1-3.25 3.2c-1.366.767-2.875 1.15-4.525 1.15Zm0-3.9c1.4 0 2.517-.467 3.35-1.4.85-.933 1.275-2.167 1.275-3.7 0-1.55-.425-2.783-1.275-3.7-.833-.933-1.95-1.4-3.35-1.4-1.416 0-2.55.458-3.4 1.375-.833.917-1.25 2.158-1.25 3.725 0 1.55.417 2.792 1.25 3.725.85.917 1.984 1.375 3.4 1.375Z" fill="#fff"/></svg>