<svg width="62" height="62" fill="none" xmlns="http://www.w3.org/2000/svg"><g filter="url(#a)"><circle cx="31" cy="27" r="17" fill="#fff"/></g><g clip-path="url(#b)" fill="#000"><path d="M35.997 32H36v-4.035c0-1.973-.425-3.494-2.732-3.494-1.11 0-1.854.61-2.157 1.186h-.033v-1.001h-2.187V32h2.278v-3.637c0-.957.181-1.883 1.367-1.883 1.168 0 1.186 1.093 1.186 1.945V32h2.275ZM25.181 24.656h2.281V32h-2.28v-7.344ZM26.32 21c-.728 0-1.32.592-1.32 1.32 0 .73.592 1.334 1.32 1.334.73 0 1.322-.604 1.322-1.333 0-.73-.592-1.321-1.321-1.321Z"/></g><defs><clipPath id="b"><path fill="#fff" transform="translate(25 21)" d="M0 0h11v11H0z"/></clipPath><filter id="a" x="0" y="0" width="62" height="62" filterUnits="userSpaceOnUse" color-interpolation-filters="sRGB"><feFlood flood-opacity="0" result="BackgroundImageFix"/><feColorMatrix in="SourceAlpha" values="0 0 0 0 0 0 0 0 0 0 0 0 0 0 0 0 0 0 127 0" result="hardAlpha"/><feOffset dy="4"/><feGaussianBlur stdDeviation="7"/><feColorMatrix values="0 0 0 0 0 0 0 0 0 0 0 0 0 0 0 0 0 0 0.15 0"/><feBlend in2="BackgroundImageFix" result="effect1_dropShadow_1_406"/><feBlend in="SourceGraphic" in2="effect1_dropShadow_1_406" result="shape"/></filter></defs></svg>