<svg width="55" height="16" fill="none" xmlns="http://www.w3.org/2000/svg"><path d="M3.66 12.36h4.48V15H.24V.96h3.42v11.4Zm12.751 2.78c-1.32 0-2.533-.307-3.64-.92a6.994 6.994 0 0 1-2.62-2.56c-.64-1.107-.96-2.347-.96-3.72 0-1.373.32-2.607.96-3.7a6.994 6.994 0 0 1 2.62-2.56c1.107-.613 2.32-.92 3.64-.92 1.32 0 2.527.307 3.62.92a6.666 6.666 0 0 1 2.6 2.56c.64 1.093.96 2.327.96 3.7 0 1.373-.32 2.613-.96 3.72a6.847 6.847 0 0 1-2.6 2.56c-1.093.613-2.3.92-3.62.92Zm0-3.12c1.12 0 2.014-.373 2.68-1.12.68-.747 1.02-1.733 1.02-2.96 0-1.24-.34-2.227-1.02-2.96-.666-.747-1.56-1.12-2.68-1.12-1.133 0-2.04.367-2.72 1.1-.666.733-1 1.727-1 2.98 0 1.24.334 2.233 1 2.98.68.733 1.587 1.1 2.72 1.1ZM34.814 5.4a2.487 2.487 0 0 0-1.1-1.06c-.467-.253-1.02-.38-1.66-.38-1.107 0-1.993.367-2.66 1.1-.667.72-1 1.687-1 2.9 0 1.293.347 2.307 1.04 3.04.707.72 1.673 1.08 2.9 1.08.84 0 1.547-.213 2.12-.64.587-.427 1.013-1.04 1.28-1.84h-4.34V7.08h7.44v3.18a6.632 6.632 0 0 1-1.3 2.38c-.6.733-1.367 1.327-2.3 1.78-.933.453-1.987.68-3.16.68-1.387 0-2.627-.3-3.72-.9a6.64 6.64 0 0 1-2.54-2.54c-.6-1.08-.9-2.313-.9-3.7s.3-2.62.9-3.7a6.463 6.463 0 0 1 2.54-2.54c1.08-.613 2.313-.92 3.7-.92 1.68 0 3.093.407 4.24 1.22 1.16.813 1.927 1.94 2.3 3.38h-3.78Zm12.554 9.74c-1.32 0-2.533-.307-3.64-.92a6.994 6.994 0 0 1-2.62-2.56c-.64-1.107-.96-2.347-.96-3.72 0-1.373.32-2.607.96-3.7a6.994 6.994 0 0 1 2.62-2.56c1.107-.613 2.32-.92 3.64-.92 1.32 0 2.527.307 3.62.92a6.666 6.666 0 0 1 2.6 2.56c.64 1.093.96 2.327.96 3.7 0 1.373-.32 2.613-.96 3.72a6.847 6.847 0 0 1-2.6 2.56c-1.093.613-2.3.92-3.62.92Zm0-3.12c1.12 0 2.014-.373 2.68-1.12.68-.747 1.02-1.733 1.02-2.96 0-1.24-.34-2.227-1.02-2.96-.666-.747-1.56-1.12-2.68-1.12-1.133 0-2.04.367-2.72 1.1-.666.733-1 1.727-1 2.98 0 1.24.334 2.233 1 2.98.68.733 1.587 1.1 2.72 1.1Z" fill="#fff"/></svg>