<svg width="33" height="33" fill="none" xmlns="http://www.w3.org/2000/svg"><path d="M3.188 13.305a.532.532 0 0 0 .378-.154l2.13-2.13a.535.535 0 0 0-.756-.756l-2.13 2.13a.533.533 0 0 0 .378.91ZM3.188 16.5a.532.532 0 0 0 .378-.154l5.325-5.325a.535.535 0 0 0-.756-.756L2.81 15.589a.533.533 0 0 0 .378.911Z" fill="#DC7000"/><path d="M30.877.525H17.032c-.882 0-1.597.716-1.597 1.598V7.98H3.188a2.662 2.662 0 0 0-2.663 2.663v13.844a2.662 2.662 0 0 0 2.663 2.663h5.857v2.13H7.448a1.597 1.597 0 1 0 0 3.195h23.43c.881 0 1.596-.716 1.596-1.598V2.123c0-.882-.715-1.598-1.597-1.598Zm-27.69 8.52h19.17c.883 0 1.598.715 1.598 1.598v12.78H1.59v-12.78c0-.883.716-1.598 1.598-1.598ZM1.59 24.487h22.365c0 .883-.715 1.598-1.598 1.598H3.187a1.597 1.597 0 0 1-1.597-1.598Zm8.52 2.663h5.325v2.13H10.11v-2.13Zm6.922 4.26H7.448a.532.532 0 1 1 0-1.065h10.65a.532.532 0 1 1 0 1.065h-1.066Zm14.378-.533a.532.532 0 0 1-.533.533H19.6a1.598 1.598 0 0 0-1.502-2.13H16.5v-2.13h5.857a2.662 2.662 0 0 0 2.663-2.663V10.643a2.662 2.662 0 0 0-2.663-2.663H16.5V2.123c0-.294.238-.533.532-.533h13.845c.294 0 .533.239.533.533v28.754Z" fill="#DC7000"/><path d="M29.28 3.188H18.63c-.588 0-1.065.477-1.065 1.065v1.065c0 .588.477 1.065 1.065 1.065h10.65c.588 0 1.065-.477 1.065-1.065V4.253c0-.588-.477-1.065-1.065-1.065Zm-10.65 2.13V4.253h10.65v1.065H18.63ZM28.215 11.175a1.597 1.597 0 1 0 0-3.195 1.597 1.597 0 0 0 0 3.195Zm0-2.13a.532.532 0 1 1 0 1.065.532.532 0 0 1 0-1.065ZM29.812 13.838a1.597 1.597 0 1 0-3.195 0 1.597 1.597 0 0 0 3.195 0Zm-1.597.532a.532.532 0 1 1 0-1.065.532.532 0 0 1 0 1.065ZM21.293 28.215a.532.532 0 0 0-.533.532v1.065a.532.532 0 1 0 1.065 0v-1.065a.532.532 0 0 0-.532-.532ZM23.422 28.215a.532.532 0 0 0-.532.532v1.065a.532.532 0 1 0 1.065 0v-1.065a.532.532 0 0 0-.533-.532ZM25.552 28.215a.532.532 0 0 0-.532.532v1.065a.532.532 0 1 0 1.065 0v-1.065a.532.532 0 0 0-.533-.532ZM27.682 28.215a.532.532 0 0 0-.532.532v1.065a.532.532 0 1 0 1.065 0v-1.065a.532.532 0 0 0-.533-.532ZM29.812 28.215a.532.532 0 0 0-.533.532v1.065a.532.532 0 1 0 1.066 0v-1.065a.532.532 0 0 0-.533-.532Z" fill="#DC7000"/></svg>