<svg width="40" height="40" fill="none" xmlns="http://www.w3.org/2000/svg"><g clip-path="url(#a)" fill="#DC7000"><path d="M8.406 14.241H.22v2.324h8.186c.64 0 1.162.521 1.162 1.162 0 .64-.522 1.162-1.162 1.162h-4.7A3.49 3.49 0 0 0 .22 22.375v3.486h2.324v-3.486c0-.64.522-1.162 1.162-1.162h4.7a3.49 3.49 0 0 0 3.486-3.486 3.49 3.49 0 0 0-3.486-3.486ZM20.632 14.241a3.49 3.49 0 0 0-3.486 3.486v4.648c0 .64-.521 1.162-1.162 1.162h-5.255v2.324h5.255a3.49 3.49 0 0 0 3.486-3.486v-4.648c0-.64.521-1.162 1.162-1.162h5.254v-2.324h-5.254ZM37.557 21.213v-4.648a2.327 2.327 0 0 0-3.564-1.966l-7.358 4.648a2.313 2.313 0 0 0-1.084 1.966 2.327 2.327 0 0 0 2.324 2.324h7.359v2.324h2.323v-2.324h2.324v-2.324h-2.324Zm-2.323 0h-7.359l7.359-4.648v4.648Z"/></g><defs><clipPath id="a"><path fill="#fff" transform="translate(.22 .22)" d="M0 0h39.661v39.661H0z"/></clipPath></defs></svg>