<svg width="62" height="62" fill="none" xmlns="http://www.w3.org/2000/svg"><g filter="url(#a)"><circle cx="31" cy="27" r="17" fill="#fff"/></g><g clip-path="url(#b)"><path d="M37 23.47a5.56 5.56 0 0 1-1.536.42 2.65 2.65 0 0 0 1.173-1.473 5.325 5.325 0 0 1-1.69.645 2.664 2.664 0 0 0-4.61 1.822c0 .212.018.415.061.608a7.544 7.544 0 0 1-5.493-2.787 2.669 2.669 0 0 0 .819 3.562 2.632 2.632 0 0 1-1.204-.329v.03c0 1.295.924 2.37 2.135 2.618a2.66 2.66 0 0 1-.699.088c-.17 0-.342-.01-.504-.045a2.69 2.69 0 0 0 2.49 1.856 5.355 5.355 0 0 1-3.304 1.137c-.219 0-.428-.01-.638-.037a7.502 7.502 0 0 0 4.088 1.196c4.905 0 7.586-4.062 7.586-7.584 0-.117-.004-.231-.01-.344A5.318 5.318 0 0 0 37 23.469Z" fill="#000"/></g><defs><clipPath id="b"><path fill="#fff" transform="translate(24 21)" d="M0 0h13v13H0z"/></clipPath><filter id="a" x="0" y="0" width="62" height="62" filterUnits="userSpaceOnUse" color-interpolation-filters="sRGB"><feFlood flood-opacity="0" result="BackgroundImageFix"/><feColorMatrix in="SourceAlpha" values="0 0 0 0 0 0 0 0 0 0 0 0 0 0 0 0 0 0 127 0" result="hardAlpha"/><feOffset dy="4"/><feGaussianBlur stdDeviation="7"/><feColorMatrix values="0 0 0 0 0 0 0 0 0 0 0 0 0 0 0 0 0 0 0.15 0"/><feBlend in2="BackgroundImageFix" result="effect1_dropShadow_1_399"/><feBlend in="SourceGraphic" in2="effect1_dropShadow_1_399" result="shape"/></filter></defs></svg>