<svg width="34" height="34" fill="none" xmlns="http://www.w3.org/2000/svg"><g clip-path="url(#a)" fill="#DC7000"><path d="M29.72 2.178H4.381A3.86 3.86 0 0 0 .525 6.034v22.034a3.86 3.86 0 0 0 3.856 3.856h25.34a3.86 3.86 0 0 0 3.855-3.856V6.034a3.86 3.86 0 0 0-3.856-3.856Zm2.755 25.89a2.757 2.757 0 0 1-2.755 2.754H4.381a2.758 2.758 0 0 1-2.754-2.754V6.034A2.758 2.758 0 0 1 4.381 3.28h25.34a2.757 2.757 0 0 1 2.753 2.754v22.034Z"/><path d="M29.72 6.585H4.381c-.912 0-1.652.74-1.652 1.652v19.83c0 .913.74 1.653 1.652 1.653h25.34c.912 0 1.652-.74 1.652-1.652V8.238c0-.913-.74-1.653-1.653-1.653ZM17.05 17.527l-5.998-3.23 5.999-3.23 6 3.23-6 3.23Zm6.611-2.308v6.459l-6.06 3.264v-6.459l6.06-3.264ZM16.5 18.483v6.46l-6.06-3.265v-6.46l6.06 3.265ZM3.83 8.237a.55.55 0 0 1 .551-.55H16.5v2.423l-6.871 3.702c-.007.004-.016.005-.023.01a.55.55 0 0 0-.267.475v4.617L3.83 21.668V8.238Zm26.441 19.83a.55.55 0 0 1-.55.552H4.38a.55.55 0 0 1-.55-.551V22.9l5.508-2.755v1.863c0 .203.111.39.29.485l7.16 3.856c.164.088.36.088.523 0l7.16-3.856a.551.551 0 0 0 .29-.485v-1.863l5.51 2.755v5.168Zm0-6.399-5.508-2.754v-4.617a.551.551 0 0 0-.269-.473c-.007-.005-.015-.006-.022-.01l-6.87-3.704V7.686H29.72a.55.55 0 0 1 .551.551v13.431ZM3.83 5.483a.55.55 0 1 0 0-1.102.55.55 0 0 0 0 1.102ZM6.034 5.483a.55.55 0 1 0 0-1.102.55.55 0 0 0 0 1.102ZM8.237 5.483a.55.55 0 1 0 0-1.102.55.55 0 0 0 0 1.102ZM22.008 5.483h7.712a.55.55 0 1 0 0-1.102h-7.712a.55.55 0 1 0 0 1.102Z"/></g><defs><clipPath id="a"><path fill="#fff" transform="translate(.525 .525)" d="M0 0h33.051v33.051H0z"/></clipPath></defs></svg>