<svg width="32" height="32" fill="none" xmlns="http://www.w3.org/2000/svg"><g clip-path="url(#a)" fill="#DC7000"><path d="M18.567 23.905a8.334 8.334 0 0 1-5.236 0 .904.904 0 1 0-.571 1.715c1.03.343 2.11.514 3.19.514 1.082 0 2.162-.171 3.19-.514a.904.904 0 1 0-.573-1.715Z"/><path d="M26.477 6.531a5.739 5.739 0 0 0-5.688-4.936h-1.032v-.064c0-.5-.405-.904-.904-.904h-5.808c-.499 0-.904.405-.904.904v.064H11.11c-2.91 0-5.282 2.147-5.685 4.936a3.813 3.813 0 0 0-2.963 3.712v7.744c0 2.476 2.018 3.486 2.934 3.704.414 5.575 5.095 9.784 10.554 9.784 5.567 0 10.144-4.32 10.554-9.784 2.375-.564 2.934-2.72 2.934-3.704v-7.744a3.813 3.813 0 0 0-2.96-3.712Zm-6.72-3.128h1.032c2.557 0 3.613 2.09 3.833 3.032h-4.865V3.403Zm-5.808-.968h4v4h-4v-4Zm-2.84.968h1.032v3.032H7.28c.586-2.455 2.81-3.032 3.83-3.032Zm4.84 26.264c-4.46 0-8.273-3.379-8.73-7.872h4.456a4.237 4.237 0 0 0 2.991-1.248c.34-.332.807-.522 1.283-.522a1.847 1.847 0 0 1 1.297.537 4.237 4.237 0 0 0 2.977 1.233h4.456c-.454 4.416-4.196 7.872-8.73 7.872Zm11.68-11.68c0 1.118-.911 2-2 2h-5.406c-.626 0-1.239-.25-1.684-.688l-.015-.016a3.667 3.667 0 0 0-2.575-1.066 3.667 3.667 0 0 0-2.59 1.082 2.418 2.418 0 0 1-1.684.688H6.27c-1.085 0-2-.878-2-2v-7.744c0-1.103.897-2 2-2h19.36c1.103 0 2 .897 2 2v7.744Z"/></g><defs><clipPath id="a"><path fill="#fff" transform="translate(.525 .627)" d="M0 0h30.848v30.848H0z"/></clipPath></defs></svg>